# xmcd
#
# Track frame offsets:
#	183
#	28568
#	71815
#
# Disc length: 1936 seconds
#
# Revision: 7
# Processed by: cddbd v1.5.2PL0 Copyright (c) Steve Scherf et al.
# Submitted via: EasyCDDAExtractor 16.0.6.1
#
DISCID=22078e03
DTITLE=Μ.Θεωδοράκης and Γρ.Μπιθικώτσης - Το Άξιον Εστί Του Οδυσσέα Ελύτη Cd1
DYEAR=1900
DGENRE=Greek
TTITLE0=Η γένεσις
TTITLE1=Ένα το χελιδόνι (Γρ.Μπιθικώτσης
TTITLE2=Τα θεμελιά μου στα βουνά-Με το λύχνο του άστρου-Η μεγάλη έξοδος-Της δι
TTITLE2=καιοσύνης Ήλιε νοητέ 
EXTD=
EXTT0=
EXTT1=
EXTT2=
PLAYORDER=
